/* XPM */
static char *d2a5ae02c7914642cfbaee37e52e4f52[] = {
/* columns rows colors chars-per-pixel */
"32 32 196 2 ",
"   c #563E01",
".  c #563E02",
"X  c #5D3C37",
"o  c #5E393F",
"O  c #5F393F",
"+  c #732F35",
"@  c #742E34",
"#  c #742F34",
"$  c #742F35",
"%  c #7D2A30",
"&  c #782D33",
"*  c #6E3137",
"=  c #6F3137",
"-  c #633E36",
";  c #61363C",
":  c #61373D",
">  c #62363D",
",  c #62373D",
"<  c #63373D",
"1  c #62373E",
"2  c #65363C",
"3  c #6A3339",
"4  c #6B3439",
"5  c #60383E",
"6  c #733531",
"7  c #713036",
"8  c #723136",
"9  c #763036",
"0  c #5B4201",
"q  c #5F4502",
"w  c #614602",
"e  c #624702",
"r  c #624703",
"t  c #634801",
"y  c #634802",
"u  c #644801",
"i  c #644902",
"p  c #684C02",
"a  c #694C02",
"s  c #654908",
"d  c #6F5102",
"f  c #6F5406",
"g  c #705202",
"h  c #735403",
"j  c #745502",
"k  c #745503",
"l  c #735605",
"z  c #684139",
"x  c #734733",
"c  c #724A33",
"v  c #7A4C34",
"b  c #5C3940",
"n  c #5C3A40",
"m  c #5D3A40",
"M  c #613B41",
"N  c #7E3C41",
"B  c #71444A",
"V  c #86262C",
"C  c #8D2329",
"Z  c #8E2329",
"A  c #8F2329",
"S  c #8E232A",
"D  c #88252B",
"F  c #89252B",
"G  c #8B252B",
"H  c #8E2429",
"J  c #8E242A",
"K  c #8A272C",
"L  c #8A272D",
"P  c #83282E",
"I  c #84282E",
"U  c #85282E",
"Y  c #973B23",
"T  c #8C5D0E",
"R  c #836003",
"E  c #836103",
"W  c #886404",
"Q  c #886504",
"!  c #8C6804",
"~  c #8E6905",
"^  c #8E6A05",
"/  c #8C6A07",
"(  c #83600A",
")  c #926F08",
"_  c #977207",
"`  c #9B7305",
"'  c #9C7405",
"]  c #9D7505",
"[  c #977308",
"{  c #976E11",
"}  c #A07907",
"|  c #A97E05",
" . c #A47E0A",
".. c #AA7E0B",
"X. c #A77B11",
"o. c #A67A12",
"O. c #815036",
"+. c #A44434",
"@. c #AB5433",
"#. c #A33C41",
"$. c #A03E43",
"%. c #A43C41",
"&. c #C97679",
"*. c #D37576",
"=. c #D47578",
"-. c #D47678",
";. c #AE8205",
":. c #AF8205",
">. c #AF8306",
",. c #A68209",
"<. c #A6800B",
"1. c #AE8408",
"2. c #AC890C",
"3. c #AC8A0D",
"4. c #B38605",
"5. c #B48605",
"6. c #B48606",
"7. c #B48706",
"8. c #B58806",
"9. c #BF8F06",
"0. c #B1890A",
"q. c #B38A0A",
"w. c #B78B08",
"e. c #B78B09",
"r. c #B78D0B",
"t. c #B88C08",
"y. c #B88C09",
"u. c #BD8F09",
"i. c #BD9009",
"p. c #BC910C",
"a. c #BC920C",
"s. c #AE8F12",
"d. c #C29409",
"f. c #C1930C",
"g. c #C09A0A",
"h. c #C19B0A",
"j. c #C7990B",
"k. c #C79A0B",
"l. c #C6980C",
"z. c #C7990C",
"x. c #C89B0C",
"c. c #CA9E0E",
"v. c #C8A00E",
"b. c #CDA30E",
"n. c #CEA311",
"m. c #CFA312",
"M. c #CDA716",
"N. c #CAA618",
"B. c #CFAA19",
"V. c #D1A811",
"C. c #D3AA11",
"Z. c #D7AE17",
"A. c #D8AF17",
"S. c #D7B51B",
"D. c #D4B01C",
"F. c #D7B21C",
"G. c #D8B31C",
"H. c #DAB41C",
"J. c #DBB81B",
"K. c #DEB81C",
"L. c #DFB81C",
"P. c #DEB91D",
"I. c #DFB91D",
"U. c #DEBB1F",
"Y. c #E0B91C",
"T. c #E0BA1D",
"R. c #E1BC1F",
"E. c #E2BD1F",
"W. c #E3BE1F",
"Q. c #E4BF1F",
"!. c #C8A324",
"~. c #D1A624",
"^. c #DCB324",
"/. c #DBBA21",
"(. c #DFBB28",
"). c #DFBC28",
"_. c #E0BC28",
"`. c #DFC815",
"'. c #E3C11B",
"]. c #E3C21B",
"[. c #E5C21E",
"{. c #E7C61D",
"}. c #E7D215",
"|. c #EDD518",
" X c #EED618",
".X c #EDDA1B",
"XX c #EEDA1A",
"oX c #F4DF1A",
"OX c #E5C123",
"+X c #E7C322",
"@X c #E6C424",
"#X c #E8C721",
"$X c #DEC242",
"%X c #E7CB46",
"&X c #E7CD44",
"*X c None",
/* pixels */
"*X*X*X*X*X*X*X*X*X*X*X*X*X*X*X*X*X*X*X*X*X*X*X*X*X*X*X*X*X*X*X*X",
"*X*X*X*X*X*X*X*X*X*X*X*X*X*X*X*X*X*X*X*X*X*X*X*X*X*X*X*X*X*X*X*X",
"*X*X*X*X*X*X*X*X*X*X*X*X*X*X*X*X*X*X*X*XO 2 + 9 B M *X*X*X*X*X*X",
"*X*X*X*X*X*X*X*X*X*X*X*X*X*X*X*X*X*X*X, $ V D #.&.N , *X*X*X*X*X",
"*X*X*X*X*X*X*X*X*X*X*X*X*X*X*X*X*X*X, $ D A %.-.%.D $ , *X*X*X*X",
"*X*X*X*X*X*X*X*X*X*X*X*X*X*X*X*X*X, $ D J %.-.#.J S D 7 , *X*X*X",
"*X*X*X*X*X*X*X*X*X*X*X*X*X*X*X*X, $ D J %.-.#.J J J D & * O *X*X",
"*X*X*X*X*X*X*X*X*X*X*X*X*X*X*X, $ D J %.-.%.J S A D % I + O *X*X",
"*X*X*X*X*X*X*X*X*X*X*X*X*X*X, $ D J %.*.%.J S J D % I & * O *X*X",
"*X*X*X*X*X*X*X*X*X*X*X*X*X, $ D J %.-.#.J S S D % I & * < m *X*X",
"*X*X*X*X*X*X*X*X*X*X*X*X, $ D J %.-.#.J A A D % I & 7 2 4 O *X*X",
"*X*X*X*X*X*X*X*X*X*X*X, $ D J %.-.#.J A A D % I & 7 2 4 O m *X*X",
"*X*X*X*X*X*X*X*X*X*X, $ D J %.-.#.J S A D % I & * 2 3 O o *X*X*X",
"*X*X*X*X*X*X*X*X*X, $ D J %.-.#.J J A D % V & = 2 3 , m *X*X*X*X",
"*X*X*X*X*X*X*X*X- 6 D S %.-.#.J A A D % V $ * 2 3 O m *X*X*X*X*X",
"*X*X*X*X*X*X*Xr ( T Y +.*.%.J S A D % I & * 2 3 O O *X*X*X*X*X*X",
"*X*X*X*X*X*Xr W 7.d.^.OX@.D S J D % I & * 2 3 O o *X*X*X*X*X*X*X",
"*X*X*X*X*Xr Q 7.k._.&X@X~.O.I D % P & * , 4 , n *X*X*X*X*X*X*X*X",
"*X*X*X*Xf / >.l.(.%X_.n.Y.!.v # P & * 2 3 < m *X*X*X*X*X*X*X*X*X",
"*X*X*X_ N.B.2./.$X(.n.A.x.d.o.x 7 7 2 3 O m *X*X*X*X*X*X*X*X*X*X",
"*X*X/ t.x.b.}..Xs.p.Z.k.9.7.' o.z , 3 < n *X*X*X*X*X*X*X*X*X*X*X",
"*X*X) G.W.Y.C.{.`.,.y.9.7.' ;...c 4 O m *X*X*X*X*X*X*X*X*X*X*X*X",
"*X*X) G.@XE.H.E.V.M.} ;.' | Q j { z O *X*X*X*X*X*X*X*X*X*X*X*X*X",
"*X*X/ i.Y.v.<.D.Y.c.7.` | W a j s X *X*X*X*X*X*X*X*X*X*X*X*X*X*X",
"*X*X*X[ J.|.a.,.D.L.k.7.Q a j q . *X*X*X*X*X*X*X*X*X*X*X*X*X*X*X",
"*X*X*X/ t.[. Xh.3.L.L.r.d h q . *X*X*X*X*X*X*X*X*X*X*X*X*X*X*X*X",
"*X*X*X*Xd q.].oXXX#XW.i.E q . *X*X*X*X*X*X*X*X*X*X*X*X*X*X*X*X*X",
"*X*X*X*X*Xd q.S.[.Q.L.i.E 0 *X*X*X*X*X*X*X*X*X*X*X*X*X*X*X*X*X*X",
"*X*X*X*X*X*Xt l 1.e.e.| a *X*X*X*X*X*X*X*X*X*X*X*X*X*X*X*X*X*X*X",
"*X*X*X*X*X*X*X*Xt u u u *X*X*X*X*X*X*X*X*X*X*X*X*X*X*X*X*X*X*X*X",
"*X*X*X*X*X*X*X*X*X*X*X*X*X*X*X*X*X*X*X*X*X*X*X*X*X*X*X*X*X*X*X*X",
"*X*X*X*X*X*X*X*X*X*X*X*X*X*X*X*X*X*X*X*X*X*X*X*X*X*X*X*X*X*X*X*X"
};
