/* XPM */
static char *f363f5ee6b194f8288f2e6aa4ff69430[] = {
/* columns rows colors chars-per-pixel */
"16 16 96 2 ",
"   c #7E1414",
".  c #801818",
"X  c #8E1919",
"o  c #911515",
"O  c #991B1B",
"+  c #9F1B1B",
"@  c #A21818",
"#  c #A51D1D",
"$  c #B41D1D",
"%  c #B91E1E",
"&  c #8F2D2D",
"*  c #9A3A3A",
"=  c #B42121",
"-  c #B72222",
";  c #CF0505",
":  c #D60000",
">  c #D50202",
",  c #D60202",
"<  c #D00606",
"1  c #DB0000",
"2  c #DD0000",
"3  c #DE0000",
"4  c #DF0000",
"5  c #DC0505",
"6  c #DE0404",
"7  c #DE0707",
"8  c #C51A1A",
"9  c #D81D1D",
"0  c #E10000",
"q  c #E40000",
"w  c #E70000",
"e  c #E80000",
"r  c #EB0000",
"t  c #E10B0B",
"y  c #E20E0E",
"u  c #EC0808",
"i  c #F00202",
"p  c #E01717",
"a  c #E21717",
"s  c #E41A1A",
"d  c #E91E1E",
"f  c #F11717",
"g  c #C12424",
"h  c #CB2323",
"j  c #C82424",
"k  c #C12C2C",
"l  c #D52121",
"z  c #DE2121",
"x  c #DF2222",
"c  c #D92B2B",
"v  c #DB2A2A",
"b  c #DB2B2B",
"n  c #E52828",
"m  c #F62323",
"M  c #F02727",
"N  c #E33333",
"B  c #9F4D4D",
"V  c #A54040",
"C  c #A64141",
"Z  c #A34F4F",
"A  c #A44F4F",
"S  c #B05454",
"D  c #C34E4E",
"F  c #D14545",
"G  c #F84444",
"H  c #FE4C4C",
"J  c #FD4F4F",
"K  c #FA5353",
"L  c #FB5656",
"P  c #F35959",
"I  c #FE6161",
"U  c #FF6D6D",
"Y  c #FF6E6E",
"T  c #E37777",
"R  c #DE9999",
"E  c #DF9999",
"W  c #E68181",
"Q  c #FF8282",
"!  c #FF8787",
"~  c #FF8888",
"^  c #FF8989",
"/  c #FF8A8A",
"(  c #E99595",
")  c #FD9090",
"_  c #FFA1A1",
"`  c #FFA5A5",
"'  c #FFA6A6",
"]  c #F9BABA",
"[  c #FFBBBB",
"{  c #FFC2C2",
"}  c #FFC3C3",
"|  c #F9C6C6",
" . c #FFC4C4",
".. c #FFC5C5",
"X. c #FDCECE",
"o. c None",
/* pixels */
"o.o.o.o.o.o.o.o.o.o.o.o.o.o.o.o.",
"o.o.o.o.o.o.o.o.o.o.o.o.o.o.o.o.",
"o.o.o.o.A S V o.o.V S A o.o.o.o.",
"o.o.Z E | X.] T T ] X.| E B o.o.",
"o.* ( ....{ ..{ { ......[ W & o.",
"o.D _ ` ` ` ` ` ` ` ) P n s % o.",
"o.F ! ~ ~ ! ~ ~ Q L f q 3 6 8 o.",
"o.k I Y Y Y Y L m i r q 1 t $ o.",
"o.O N H J G M u r q q 3 7 9 . o.",
"o.o.+ v d 5 3 0 0 0 1 t l X o.o.",
"o.o.o.o.j s : : : : s j   o.o.o.",
"o.o.o.o.o.g x ; < x - o.o.o.o.o.",
"o.o.o.o.o.o.- c c # o.o.o.o.o.o.",
"o.o.o.o.o.o.o.@ o o.o.o.o.o.o.o.",
"o.o.o.o.o.o.o.o.o.o.o.o.o.o.o.o.",
"o.o.o.o.o.o.o.o.o.o.o.o.o.o.o.o."
};
