/* XPM */
static char *_7839d3dffbd4d6ce5bb28c6b9b1e7cc[] = {
/* columns rows colors chars-per-pixel */
"48 48 247 2 ",
"   c black",
".  c #010101",
"X  c #020202",
"o  c gray1",
"O  c #040404",
"+  c gray2",
"@  c #060606",
"#  c #070707",
"$  c #090909",
"%  c gray4",
"&  c #0B0B0B",
"*  c #0C0C0C",
"=  c gray5",
"-  c #0E0E0E",
";  c gray6",
":  c #101010",
">  c #111111",
",  c gray7",
"<  c #131313",
"1  c gray8",
"2  c #151515",
"3  c #161616",
"4  c #181818",
"5  c #191919",
"6  c #1B1B1B",
"7  c gray11",
"8  c #1D1D1D",
"9  c #1E1E1E",
"0  c gray12",
"q  c gray13",
"w  c #222222",
"e  c #232323",
"r  c gray14",
"t  c #252525",
"y  c gray15",
"u  c #272727",
"i  c #282828",
"p  c gray16",
"a  c #2A2A2A",
"s  c gray17",
"d  c #2D2D2D",
"f  c gray18",
"g  c #2F2F2F",
"h  c gray19",
"j  c #313131",
"k  c #323232",
"l  c gray20",
"z  c #343434",
"x  c #353535",
"c  c gray21",
"v  c #373737",
"b  c gray22",
"n  c #393A3A",
"m  c #3A3A3A",
"M  c gray23",
"N  c #3C3C3C",
"B  c gray24",
"V  c #3E3E3E",
"C  c #3F3F3F",
"Z  c #760000",
"A  c gray25",
"S  c #414141",
"D  c gray26",
"F  c #434343",
"G  c #444444",
"H  c gray27",
"J  c #444546",
"K  c #464646",
"L  c gray28",
"P  c #484848",
"I  c #494949",
"U  c gray29",
"Y  c #4B4B4B",
"T  c #4C4C4C",
"R  c gray30",
"E  c #4E4E4E",
"W  c gray31",
"Q  c #505050",
"!  c #515151",
"~  c gray32",
"^  c #535353",
"/  c gray33",
"(  c #555555",
")  c #565656",
"_  c gray34",
"`  c #585858",
"'  c #5A5A5A",
"]  c #5B5B5B",
"[  c gray36",
"{  c #5D5D5D",
"}  c gray37",
"|  c #5F5F5F",
" . c #63564E",
".. c gray38",
"X. c #626262",
"o. c gray39",
"O. c #646464",
"+. c #656565",
"@. c gray40",
"#. c #676767",
"$. c #686868",
"%. c DimGray",
"&. c #6A6A6A",
"*. c gray42",
"=. c #6C6C6C",
"-. c #6D6D6D",
";. c gray43",
":. c gray44",
">. c #717171",
",. c #727272",
"<. c gray45",
"1. c #747474",
"2. c gray46",
"3. c #767676",
"4. c #777777",
"5. c gray47",
"6. c #797979",
"7. c gray48",
"8. c #7B7B7B",
"9. c #7C7C7C",
"0. c gray49",
"q. c #7E7E7E",
"w. c gray50",
"e. c #841B00",
"r. c #A10000",
"t. c #B00200",
"y. c #BF1E02",
"u. c #992600",
"i. c #992700",
"p. c #AA2600",
"a. c #A32800",
"s. c #A63500",
"d. c #AF3A01",
"f. c #CF0000",
"g. c #CB3100",
"h. c #C03A03",
"j. c #D83801",
"k. c #E33A02",
"l. c #ED3C02",
"z. c #B44000",
"x. c #944E32",
"c. c #DF4601",
"v. c #D44D01",
"b. c #D75403",
"n. c #E65901",
"m. c #E05808",
"M. c #F15707",
"N. c #EB6105",
"B. c #E36B01",
"V. c #FA610A",
"C. c #FB6A0A",
"Z. c #E97804",
"A. c #EF7108",
"S. c #F67301",
"D. c #FA7101",
"F. c #FD7606",
"G. c #F67D06",
"H. c #FD7801",
"J. c #FE8901",
"K. c #FC8A04",
"L. c #FD8409",
"P. c #FA820E",
"I. c #FD840D",
"U. c #FF9703",
"Y. c #FB9005",
"T. c #FD9408",
"R. c #FC910E",
"E. c #FE980B",
"W. c #FF9E08",
"Q. c #F88111",
"!. c #FF8B13",
"~. c #FFA609",
"^. c #FFA40B",
"/. c #FFA00C",
"(. c #FDA013",
"). c #FFA313",
"_. c #FCA315",
"`. c #FFAA12",
"'. c #FEAE10",
"]. c #FFAB14",
"[. c #FFB718",
"{. c #FFB81D",
"}. c #C7936D",
"|. c #818181",
" X c gray51",
".X c #848484",
"XX c gray52",
"oX c #868686",
"OX c gray53",
"+X c #898989",
"@X c #8B8B8B",
"#X c gray55",
"$X c #8E8E8E",
"%X c gray56",
"&X c #909090",
"*X c #929292",
"=X c #929393",
"-X c #939393",
";X c #979592",
":X c gray58",
">X c #959595",
",X c #989898",
"<X c gray60",
"1X c #989A9B",
"2X c #9A9A9A",
"3X c #9B9B9B",
"4X c gray62",
"5X c #9F9F9F",
"6X c #A1978D",
"7X c #A0A0A0",
"8X c gray63",
"9X c #A2A2A2",
"0X c gray64",
"qX c #A4A4A4",
"wX c #A7A7A7",
"eX c gray66",
"rX c #ACACAC",
"tX c gray68",
"yX c #AFAFAF",
"uX c gray69",
"iX c #B1B1B1",
"pX c #B4B4B4",
"aX c gray72",
"sX c #B9B9B9",
"dX c gray73",
"fX c #BCBCBC",
"gX c gray",
"hX c gray75",
"jX c #C0C0C0",
"kX c #C1C1C1",
"lX c #C3C3C3",
"zX c #C5C5C5",
"xX c #C6C6C6",
"cX c #C8C8C8",
"vX c #CACACA",
"bX c gray80",
"nX c #CDCDCD",
"mX c #CECECE",
"MX c LightGray",
"NX c #D5D5D5",
"BX c #D8D8D8",
"VX c gray86",
"CX c #DFDFDF",
"ZX c gray89",
"AX c #E4E4E4",
"SX c #ECECEC",
"DX c None",
/* pixels */
"DXDXDXDXDXDXDXDXDXDXDXDXDXDXDXDXDXDXDXDXDXDXDXDXDXDXDXDXDXDXDXDXDXDXDXDXDXDXDXDXDXDXDXDXDXDXDXDX",
"DXDXDXDXDXDXDXDXDXDXDXDXDXDXDXDXDXDXDXDXDXDXDXDXDXDXDXDXDXDXDXDXDXDXDXDXDXDXDXDXDXDXDXDXDXDXDXDX",
"DXDXDXDXDXDXDXDXDXDXDXDXDXDXDXDXDXDXDXDXDXDXDXDXDXDXDXDXDXDXDXDXDXDXDXDXDXDXDXDXDXDXDXDXDXDXDXDX",
"DXDXDXDXDXDXDXDXDXDXDXDXDXDXDXDXDXDXDXDXDXDXDXDXDXDXDXDXDXDXDXDXDXDXDXI.M.DXDXDXDXDXDXDXDXDXDXDX",
"DXDXDXDXDXDXDXDXDXDXDXDXDXDXDXDXDXDXDXDXDXDXDXDXDXDXDXDXDXDXDXDXDXDXDX[.m.DXDXDXDXDXDXDXDXDXDXDX",
"DXDXDXDXDXDXDXDXDXDXDXDXDXDXDXDXDXDXDXDXDXDXDXDXDXDXDXDXDXDXDXDXDXDXL.].h.DXDXDXDXDXDXDXDXDXDXDX",
"DXDXDXDXDXDXDXDXDXDXDXDXDXDXDXDXDXDXDXDXDXDXDXDXDXDXDXDXDXDXDXDXDXDXE.R.i.DXDXDXDXDXDXDXDXDXDXDX",
"DXDXDXDXDXDXDXDXDXDXDXDXDXDXDXDXDXDXDXDXDXDXDXDXDXDXDXDXDXDXDXDXDXDX^.A.DXDXDXDXDXDXDXDXDXDXDXDX",
"DXDXDXDXDXDXDXDXDXDXDXDXDXDXDXDXDXDXDXDXDXDXDXDXDXDXDXDXDXDXDXDXDXH.~.b.DXDXDXDX(.{.V.DXDXDXDXDX",
"DXDXDXDXDXDXDXDXDXDXDXDXDXDXDXDXDXDXDXDXDXDXDXDXDXDXDXDXDXDXDXDXDXB.Z.d.DXDXT.'.(.C.j.e.DXDXDXDX",
"DXDXDXDXDXDXDXDXDXDXDXDXDXDXDXDXDXDXDXDXDXDXDXDXDXDXDXDXDXDXDXDXDXDXDXDXDXU./.F.c.i.DXDXDXDXDXDX",
"DXDXDXDXDXDXDXDXDXDXDXDXDXDXDXDXDXDXDXDXDXDXDXDXDXDXDXDXDXDXDXDXDXDXDXDXDXD.n.s.DXDXDXDXDXDXDXDX",
"DXDXDXDXDXDXDXDXDXDXDXDXDXDXDXDXDXDXDXDXDXDXDXDXDXDXDXDXDXDXDXDXf.r.Z DXDXDXDXDXDXDXDXDXDXDXDXDX",
"DXDXDXDXDXDXDXDXDXDXDXDXDXDXDXDXDXDXDXDXDXDXDXDXDXDXDX) =X .y.t.DXDXDXDXDXDXDXDXDXDXDXDXDXDXDXDX",
"DXDXDXDXDXDXDXDXDXDXDXDXDXDXDX                DXDXDX:.@.1X}.x.DXDXDXDXDXDXJ.Y.G.DXDXDXDXDXDXDXDX",
"DXDXDXDXDXDXDXDXDXDXDXDX                          P $X[ T 6X;XJ DXDXDXDXDXS.K./.`._.Q.l.DXDXDXDX",
"DXDXDXDXDXDXDXDXDXDXDX  & p P ` ) D r $         - ;.%.m , m oX:.1 DXDXDXDXDXz.v.N.P.!.k.DXDXDXDX",
"DXDXDXDXDXDXDXDXDX  - Q 7XlXzXfXiX8X$X@.s O O   q X.M ,     5 j - DXDXDXDXDXDXDXDXa.g.p.DXDXDXDX",
"DXDXDXDXDXDXDXDX  q 3XAXZXMXzXaXrX5X=XoX1.b +   7 m , O         DXDXDXDXDXDXDXDXDXDXDXDXDXDXDXDX",
"DXDXDXDXDXDXDX  q iXSXZXBXbXjXpXeX1X$X X4.#.u   # ;           DXDXDXDXDXDXDXDXDXDXDXDXDXDXDXDXDX",
"DXDXDXDXDXDXDX- >XCXVXNXnXlXaXtX8X>X+X0.>.#.U $         O   O   DXDXDXDXDXDXDXDXDXDXDXDXDXDXDXDX",
"DXDXDXDXDXDX  ~ bXnXbXbXkXsXyXqX1X$X X4.*.} ! 4   O             DXDXDXDXDXDXDXDXDXDXDXDXDXDXDXDX",
"DXDXDXDXDX  & =XkXjXfXsXpXtXqX3X$XXX8.:.O.` R 0     O   O         DXDXDXDXDXDXDXDXDXDXDXDXDXDXDX",
"DXDXDXDXDX  r 8XiXiXtXtXwX7X,X$XOX0.,.#.[ Q H 7               O   DXDXDXDXDXDXDXDXDXDXDXDXDXDXDX",
"DXDXDXDXDX  j 5X8X8X8X4X1X-X#X.X9.:.%.[ ^ P M ,     O               DXDXDXDXDXDXDXDXDXDXDXDXDXDX",
"DXDXDXDX    d =X:X;X=X%X@XoXw.5.:.%.} ^ P C d $   O       O   O     DXDXDXDXDXDXDXDXDXDXDXDXDXDX",
"DXDXDXDX    7 8.OXoXXX X9.6.,.;.@.] ~ P C c 5           O           DXDXDXDXDXDXDXDXDXDXDXDXDXDX",
"DXDXDXDX    + ` 6.6.1.,.:.=.@.} ] T L V c q +     O   O       O O     DXDXDXDXDXDXDXDXDXDXDXDXDX",
"DXDXDXDX  O   q O.%.$.O.X.[ ` ~ P D M j r $   O O   O   O O   O       DXDXDXDXDXDXDXDXDXDXDXDXDX",
"DXDXDXDX+ $ $ & h ` ] ` ) Q P D V c d q , & & $ $ & $ & $ $ $ $ & +   DXDXDXDXDXDXDXDXDXDXDXDXDX",
"DXDXDXDX+ 2 2 2 2 r V L J D V c h u 7 2 2 2 2 2 2 2 2 2 2 2 2 2 2 $   DXDXDXDXDXDXDXDXDXDXDXDXDX",
"DXDXDXDX+ 7 7 7 7 7 7 r p p p r q 0 0 7 7 7 7 7 7 7 7 7 7 7 7 7 7 -   DXDXDXDXDXDXDXDXDXDXDXDXDX",
"DXDXDXDX+ 0 u r r u r r u r r u t u t t t u t t u t t t r u r r r $ DXDXDXDXDXDXDXDXDXDXDXDXDXDX",
"DXDXDXDX  7 j h h h d h h h h h d h h h h h h h h h h h h d h h u + DXDXDXDXDXDXDXDXDXDXDXDXDXDX",
"DXDXDXDXDX2 c b b b b b b c c b b b b b x b b b b b b x b b b b 7   DXDXDXDXDXDXDXDXDXDXDXDXDXDX",
"DXDXDXDXDX# j C C C C C C D C C C C C C C C C C C A C C A A C m ; DXDXDXDXDXDXDXDXDXDXDXDXDXDXDX",
"DXDXDXDXDXDX7 J L L L L L L L L J L L L L J L P L L L L L L J p   DXDXDXDXDXDXDXDXDXDXDXDXDXDXDX",
"DXDXDXDXDXDX+ l ~ T Q Q Q T Q Q Q Q Q Q Q Q Q T Q Q Q ! R Q D & DXDXDXDXDXDXDXDXDXDXDXDXDXDXDXDX",
"DXDXDXDXDXDXDX; G ` ) ) ^ ) ) ) / ) ) / / ) / ) ^ / / / ` Q 4   DXDXDXDXDXDXDXDXDXDXDXDXDXDXDXDX",
"DXDXDXDXDXDXDXDX2 P [ [ [ [ [ ] [ [ [ [ [ [ [ [ [ [ { } ^ q   DXDXDXDXDXDXDXDXDXDXDXDXDXDXDXDXDX",
"DXDXDXDXDXDXDXDXDX1 L @.O.O.O.X.O.O.O.O.X.O.O.O.X.@.@.^ 0   DXDXDXDXDXDXDXDXDXDXDXDXDXDXDXDXDXDX",
"DXDXDXDXDXDXDXDXDXDX& c [ *.*.%.%.%.$.%.%.$.*.%.%.X.D ,   DXDXDXDXDXDXDXDXDXDXDXDXDXDXDXDXDXDXDX",
"DXDXDXDXDXDXDXDXDXDXDX  2 M [ *.:.,.,.:.:.:.;.X.J 0 +   DXDXDXDXDXDXDXDXDXDXDXDXDXDXDXDXDXDXDXDX",
"DXDXDXDXDXDXDXDXDXDXDXDXDX  - q l J T T L b r , O   DXDXDXDXDXDXDXDXDXDXDXDXDXDXDXDXDXDXDXDXDXDX",
"DXDXDXDXDXDXDXDXDXDXDXDXDXDXDXDX    + O       DXDXDXDXDXDXDXDXDXDXDXDXDXDXDXDXDXDXDXDXDXDXDXDXDX",
"DXDXDXDXDXDXDXDXDXDXDXDXDXDXDXDXDXDXDXDXDXDXDXDXDXDXDXDXDXDXDXDXDXDXDXDXDXDXDXDXDXDXDXDXDXDXDXDX",
"DXDXDXDXDXDXDXDXDXDXDXDXDXDXDXDXDXDXDXDXDXDXDXDXDXDXDXDXDXDXDXDXDXDXDXDXDXDXDXDXDXDXDXDXDXDXDXDX",
"DXDXDXDXDXDXDXDXDXDXDXDXDXDXDXDXDXDXDXDXDXDXDXDXDXDXDXDXDXDXDXDXDXDXDXDXDXDXDXDXDXDXDXDXDXDXDXDX"
};
